<mxfile host="app.diagrams.net" modified="2024-01-28T11:15:40.045Z" agent="Mozilla/5.0 (Macintosh; Intel Mac OS X 10_15_7) AppleWebKit/537.36 (KHTML, like Gecko) Chrome/120.0.0.0 Safari/537.36" etag="M04ErDPb7wRIsvD9J4IQ" version="23.0.2" type="github">
  <diagram name="Page-1" id="0l3SDfxZKlJ5-3YzWZmR">
    <mxGraphModel dx="984" dy="593" grid="1" gridSize="10" guides="1" tooltips="1" connect="1" arrows="1" fold="1" page="1" pageScale="1" pageWidth="850" pageHeight="1100" math="0" shadow="0">
      <root>
        <mxCell id="0" />
        <mxCell id="1" parent="0" />
        <mxCell id="Zp3tux6OZ8Z04NkEwyCu-5" style="edgeStyle=orthogonalEdgeStyle;rounded=0;orthogonalLoop=1;jettySize=auto;html=1;" edge="1" parent="1" source="Zp3tux6OZ8Z04NkEwyCu-1" target="Zp3tux6OZ8Z04NkEwyCu-2">
          <mxGeometry relative="1" as="geometry" />
        </mxCell>
        <mxCell id="Zp3tux6OZ8Z04NkEwyCu-1" value="Eclipse" style="whiteSpace=wrap;html=1;aspect=fixed;" vertex="1" parent="1">
          <mxGeometry x="40" y="150" width="90" height="90" as="geometry" />
        </mxCell>
        <mxCell id="Zp3tux6OZ8Z04NkEwyCu-6" style="edgeStyle=orthogonalEdgeStyle;rounded=0;orthogonalLoop=1;jettySize=auto;html=1;" edge="1" parent="1" source="Zp3tux6OZ8Z04NkEwyCu-2">
          <mxGeometry relative="1" as="geometry">
            <mxPoint x="350" y="195" as="targetPoint" />
          </mxGeometry>
        </mxCell>
        <mxCell id="Zp3tux6OZ8Z04NkEwyCu-2" value="Eclipse Modeling Framework (EMF)" style="whiteSpace=wrap;html=1;aspect=fixed;" vertex="1" parent="1">
          <mxGeometry x="200" y="150" width="90" height="90" as="geometry" />
        </mxCell>
        <mxCell id="Zp3tux6OZ8Z04NkEwyCu-4" value="Meta Programming System (MPS)" style="whiteSpace=wrap;html=1;aspect=fixed;" vertex="1" parent="1">
          <mxGeometry x="350" y="150" width="90" height="90" as="geometry" />
        </mxCell>
      </root>
    </mxGraphModel>
  </diagram>
</mxfile>
